<?xml version="1.0" encoding="UTF-8"?>
<svg width="51px" height="55px" viewBox="0 0 51 55" version="1.1" xmlns="http://www.w3.org/2000/svg" xmlns:xlink="http://www.w3.org/1999/xlink">
    <!-- Generator: Sketch 62 (91390) - https://sketch.com -->
    <title>header_job-guarantee</title>
    <desc>Created with Sketch.</desc>
    <defs>
        <filter x="0.0%" y="0.0%" width="100.0%" height="100.0%" filterUnits="objectBoundingBox" id="filter-1">
            <feOffset dx="0" dy="0" in="SourceAlpha" result="shadowOffsetOuter1"></feOffset>
            <feComposite in="shadowOffsetOuter1" in2="SourceAlpha" operator="out" result="shadowOffsetOuter1"></feComposite>
            <feColorMatrix values="0 0 0 0 0.133333333   0 0 0 0 0.235294118   0 0 0 0 0.31372549  0 0 0 0.16 0" type="matrix" in="shadowOffsetOuter1" result="shadowMatrixOuter1"></feColorMatrix>
            <feMerge>
                <feMergeNode in="shadowMatrixOuter1"></feMergeNode>
                <feMergeNode in="SourceGraphic"></feMergeNode>
            </feMerge>
        </filter>
    </defs>
    <g id="_zeplin" stroke="none" stroke-width="1" fill="none" fill-rule="evenodd">
        <g id="hp---dec.2019---desktop---full" transform="translate(-1191.000000, -597.000000)">
            <g id="header">
                <g id="Group-10" filter="url(#filter-1)" transform="translate(0.000000, 558.000000)">
                    <g id="Group-8" transform="translate(491.000000, 33.000000)">
                        <g id="Group-3" transform="translate(705.569353, 0.000000)">
                            <g id="header_job-guarantee" transform="translate(0.513714, 13.000000)">
                                <polygon id="o-2" fill="#FFFFFF" points="3.9169324 8 3.9169324 17 3.9169324 25 8.9169324 34 18.9169324 41 29.9169324 34 34.9169324 25 34.9169324 13 34.9169324 8 26.9169324 8 19.9169324 2 12.9169324 6"></polygon>
                                <circle id="o-1" fill="#96DDE7" cx="17.9169324" cy="22" r="9"></circle>
                                <path d="M16.6299914,0.698883586 C17.6491195,-0.232961195 19.1859646,-0.232961195 20.2047791,0.698883586 L20.2047791,0.698883586 L20.2314332,0.724220817 C23.3549824,3.76124046 27.0106732,5.29836212 31.7362918,5.56143083 C34.0028327,5.68780388 35.8043375,7.55774961 35.8378904,9.81838833 C35.8451026,10.2819648 35.8570186,10.6986204 35.8748925,11.0924414 L35.8748925,11.0924414 L35.8761468,11.1243475 C35.9677116,15.9402868 36.0815403,21.9339353 34.0677433,27.3801758 C32.9636355,30.366834 31.2928926,32.963112 29.1022377,35.0973776 C26.6083528,37.5269307 23.3424393,39.456935 19.3954346,40.8339007 C19.2662405,40.8789446 19.1317157,40.9155427 18.9956228,40.9427567 C18.8040267,40.9809189 18.6105492,41 18.4173852,41 C18.2242213,41 18.0310573,40.9809189 17.8391476,40.9427567 C17.7030549,40.9155427 17.5694707,40.8792575 17.4409038,40.8345264 C13.4891954,39.460063 10.2198325,37.5309973 7.72375267,35.1011313 C5.53215694,32.9674912 3.86141404,30.3718388 2.75824705,27.3858063 C0.751975781,21.9558316 0.866118207,15.973444 0.957996503,11.166576 L0.957996503,11.166576 L0.95987793,11.0924414 C0.977751849,10.6958052 0.989981406,10.2791495 0.996880159,9.81870111 C1.03043293,7.55774961 2.83225142,5.68780388 5.09847873,5.56174361 C9.82409722,5.29836212 13.4797881,3.76124046 16.6033373,0.724220817 L16.6033373,0.724220817 Z M18.5666483,2.46529106 C18.4763379,2.38865396 18.3587462,2.38896675 18.2681222,2.46529106 C16.4857455,4.19447478 14.5710391,5.4775992 12.4151912,6.38786049 C10.2565211,7.29937307 7.9071957,7.81487502 5.23300361,7.96377 C4.22485073,8.01976204 3.42334569,8.85025814 3.40829395,9.85404809 C3.40139528,10.3332646 3.38885217,10.7693142 3.37003749,11.1856572 L3.37003749,11.1856572 L3.3694103,11.2125583 C3.27690489,16.0572756 3.17216984,21.5488728 5.02133853,26.5540589 C7.13579414,32.2774443 11.4581515,36.2056442 18.2351965,38.5629395 C18.2590284,38.5710725 18.2847418,38.5779541 18.3110824,38.5832718 C18.3819509,38.597348 18.4531331,38.597348 18.5230609,38.5835846 C18.5497151,38.5782669 18.5754285,38.5710725 18.599574,38.5629395 C25.3694067,36.201265 29.6889418,32.2708755 31.8049654,26.5478029 C33.6594649,21.5319814 33.5572384,16.0360049 33.4650466,11.1856572 C33.4462319,10.7721295 33.4336888,10.3360799 33.4264765,9.85436087 C33.4117383,8.85025814 32.6102333,8.01976204 31.6020805,7.96377 C28.9275748,7.81487502 26.5782493,7.29937307 24.4195793,6.38786049 C22.264045,5.4775992 20.3493385,4.19447478 18.5666483,2.46529106 Z M18.0002657,10.877551 C23.7438623,10.877551 28.4169324,15.3819402 28.4169324,20.9182136 C28.4169324,26.4547946 23.7438623,30.9591837 18.0002657,30.9591837 C12.2563502,30.9591837 7.58359906,26.4547946 7.58359906,20.9182136 C7.58359906,15.3819402 12.2563502,10.877551 18.0002657,10.877551 Z M18.0002657,13.241633 C13.6087789,13.241633 10.0362114,16.6852437 10.0362114,20.9182136 C10.0362114,25.1511836 13.6087789,28.5947944 18.0002657,28.5947944 C22.3914336,28.5947944 25.9640011,25.1511836 25.9640011,20.9182136 C25.9640011,16.6852437 22.3914336,13.241633 18.0002657,13.241633 Z M21.3919937,17.1033761 C21.8552951,16.6117998 22.6063863,16.6117998 23.0696876,17.1033761 C23.5326806,17.5942984 23.5326806,18.390698 23.0696876,18.8819474 L23.0696876,18.8819474 L17.5507871,24.7337674 C17.3191363,24.9793921 17.0156153,25.1020408 16.7120943,25.1020408 C16.4085733,25.1020408 16.1050522,24.9793921 15.8734015,24.7337674 L15.8734015,24.7337674 L13.7641771,22.4973072 C13.3011842,22.0063849 13.3011842,21.2099853 13.7641771,20.718736 C14.2274785,20.2274866 14.9785697,20.2274866 15.4418711,20.718736 L15.4418711,20.718736 L16.7120943,22.0655834 Z" id="Combined-Shape" fill="#223C50" fill-rule="nonzero"></path>
                            </g>
                        </g>
                    </g>
                </g>
            </g>
        </g>
    </g>
</svg>