<?xml version="1.0" encoding="UTF-8"?>
<svg width="50px" height="55px" viewBox="0 0 50 55" version="1.1" xmlns="http://www.w3.org/2000/svg" xmlns:xlink="http://www.w3.org/1999/xlink">
    <!-- Generator: Sketch 62 (91390) - https://sketch.com -->
    <title>header_learn-online</title>
    <desc>Created with Sketch.</desc>
    <defs>
        <filter x="0.0%" y="0.0%" width="100.0%" height="100.0%" filterUnits="objectBoundingBox" id="filter-1">
            <feOffset dx="0" dy="0" in="SourceAlpha" result="shadowOffsetOuter1"></feOffset>
            <feComposite in="shadowOffsetOuter1" in2="SourceAlpha" operator="out" result="shadowOffsetOuter1"></feComposite>
            <feColorMatrix values="0 0 0 0 0.133333333   0 0 0 0 0.235294118   0 0 0 0 0.31372549  0 0 0 0.16 0" type="matrix" in="shadowOffsetOuter1" result="shadowMatrixOuter1"></feColorMatrix>
            <feMerge>
                <feMergeNode in="shadowMatrixOuter1"></feMergeNode>
                <feMergeNode in="SourceGraphic"></feMergeNode>
            </feMerge>
        </filter>
    </defs>
    <g id="_zeplin" stroke="none" stroke-width="1" fill="none" fill-rule="evenodd">
        <g id="hp---dec.2019---desktop---full" transform="translate(-492.000000, -597.000000)">
            <g id="header">
                <g id="Group-10" filter="url(#filter-1)" transform="translate(0.000000, 558.000000)">
                    <g id="Group-8" transform="translate(491.000000, 33.000000)">
                        <g id="Group-5">
                            <g id="header_learn-online" transform="translate(0.513714, 6.000000)">
                                <path d="M2.02742888,40 L2.02742888,10 L4.08228665,7 L48.2617286,8 L49.2891575,40 L29.7674289,40 L29.7680087,44 L32.8502953,48 L17.4388621,48 L20.5211488,44 L21.5485776,40 L2.02742888,40 Z" id="o-2" fill="#FFFFFF"></path>
                                <path d="M16.4114332,22 L16.4114332,29 L25.6582932,33 L35.932582,29 L34.9051531,22 C37.6449635,20.6666667 39.0148686,20 39.0148686,20 C39.0148686,20 34.5626768,17.6666667 25.6582932,13 L12.3017177,19 L16.4114332,22 Z" id="o-1" fill="#96DDE7"></path>
                                <path d="M46.0690755,7 C47.8445068,7 49.2891575,8.60605263 49.2891575,10.5798421 L49.2891575,40.1052632 C49.2891575,40.5991579 48.9285984,41 48.4843382,41 L30.539,41 L30.5412784,41.2022112 C30.6132172,45.1826294 32.1234521,47.2 35.0335817,47.2 C35.5298299,47.2 35.932582,47.6032 35.932582,48.1 C35.932582,48.5968 35.5298299,49 35.0335817,49 L15.2555757,49 C14.7593276,49 14.3565755,48.5968 14.3565755,48.1 C14.3565755,47.6032 14.7593276,47.2 15.2555757,47.2 C18.2143682,47.2 19.7260567,45.1145969 19.7502812,41.0008848 L1.80481929,41 C1.36055904,41 1,40.5991579 1,40.1052632 L1,10.5798421 C1,8.60605263 2.44465063,7 4.22008198,7 L46.0690755,7 Z M28.6888061,41.2857143 L21.6003514,41.2857143 C21.4718704,43.5185714 20.8347455,45.2594286 19.7505771,46.4285714 L30.5385804,46.4285714 C29.454412,45.2594286 28.8164071,43.5185714 28.6888061,41.2857143 Z M46.2825907,8.36 L4.00656671,8.36 C3.10897968,8.36 2.37969021,9.11348 2.37969021,10.04084 L2.37969021,36.92 L47.9094672,36.92 L47.9094672,10.04084 C47.9094672,9.11348 47.1801778,8.36 46.2825907,8.36 Z M25.9987146,12.0793739 L39.5836076,18.745948 C39.8632966,18.8834461 40.0422975,19.1776086 40.0422975,19.5001042 C40.0422975,19.8225997 39.8632966,20.1167623 39.5836076,20.2542604 L39.014,20.533 L39.0138848,26.0460624 C39.2347944,25.9647738 39.4886972,25.989024 39.6994697,26.1351828 C40.0384465,26.3697353 40.1403304,26.8356784 39.9406873,27.1979243 L40.9403605,28.7562519 C41.1761705,29.1233776 41.0806135,29.6208768 40.7268985,29.8656272 C40.5951224,29.9568087 40.4463925,30 40.2999746,30 C40.051064,30 39.8067772,29.8752253 39.6580474,29.6440721 L39.014,28.642 L38.3716899,29.6440721 C38.2229601,29.8752253 37.9786732,30 37.7297627,30 C37.5833447,30 37.4346149,29.9568087 37.3028387,29.8656272 C36.9491237,29.6208768 36.8535668,29.1241774 37.0893767,28.7562519 L37.9971859,27.3411286 C37.990792,27.2895944 37.9874398,27.236326 37.9874398,27.1818182 L37.987,21.037 L35.653,22.182 C35.8309681,22.3301235 35.932582,22.5419835 35.932582,22.766803 L35.932582,28.6315028 C35.932582,28.9221685 35.7634514,29.1875257 35.4955296,29.3179035 L26.0115706,33.9194725 C25.9009245,33.9731575 25.7792136,34 25.6582932,34 C25.5373727,34 25.4156619,33.9731575 25.3050157,33.9194725 L15.8210568,29.3179035 C15.5531349,29.1875257 15.3840043,28.9221685 15.3840043,28.6315028 L15.3840043,22.766803 C15.3840043,22.5403544 15.4870962,22.3270537 15.6622554,22.182671 L11.7329787,20.2542604 C11.4532898,20.1167623 11.2742888,19.8225997 11.2742888,19.5001042 C11.2742888,19.1776086 11.4532898,18.8834461 11.7329787,18.745948 L25.3178717,12.0793739 C25.5336318,11.973542 25.7829545,11.973542 25.9987146,12.0793739 Z M34.3519222,23.9754818 L25.9949737,27.7917164 C25.8882792,27.8404164 25.7732862,27.8647663 25.6582932,27.8647663 L25.6582932,28.2 C25.6582932,28.6416 25.4281491,29 25.1445787,29 C24.8610084,29 24.6308643,28.6416 24.6308643,28.2 L24.63,27.475 L16.9646642,23.9754818 L16.9646642,28.1575412 L25.6582932,32.3756461 L34.3519222,28.1575412 L34.3519222,23.9754818 Z M25.6582932,13.7543506 L13.9505127,19.5001042 L25.163,25.002 L25.2204587,25.0086792 C25.2962052,25.0261671 25.3665782,25.069434 25.4277779,25.1325624 L25.6582932,25.2458577 L36.347,20 L25.658,20 L25.6582932,21.1666667 C25.6582932,21.6266667 25.4281491,22 25.1445787,22 C24.8610084,22 24.6308643,21.6266667 24.6308643,21.1666667 L24.6308643,17.8333333 C24.6308643,17.3733333 24.8610084,17 25.1445787,17 C25.4281491,17 25.6582932,17.3733333 25.6582932,17.8333333 L25.658,19 L36.347,19 L25.6582932,13.7543506 Z" id="Combined-Shape" fill="#223C50" fill-rule="nonzero"></path>
                            </g>
                        </g>
                    </g>
                </g>
            </g>
        </g>
    </g>
</svg>