<?xml version="1.0" encoding="UTF-8"?>
<svg width="50px" height="55px" viewBox="0 0 50 55" version="1.1" xmlns="http://www.w3.org/2000/svg" xmlns:xlink="http://www.w3.org/1999/xlink">
    <!-- Generator: Sketch 62 (91390) - https://sketch.com -->
    <title>header_expert-mentors</title>
    <desc>Created with Sketch.</desc>
    <defs>
        <filter x="0.0%" y="0.0%" width="100.0%" height="100.0%" filterUnits="objectBoundingBox" id="filter-1">
            <feOffset dx="0" dy="0" in="SourceAlpha" result="shadowOffsetOuter1"></feOffset>
            <feComposite in="shadowOffsetOuter1" in2="SourceAlpha" operator="out" result="shadowOffsetOuter1"></feComposite>
            <feColorMatrix values="0 0 0 0 0.133333333   0 0 0 0 0.235294118   0 0 0 0 0.31372549  0 0 0 0.16 0" type="matrix" in="shadowOffsetOuter1" result="shadowMatrixOuter1"></feColorMatrix>
            <feMerge>
                <feMergeNode in="shadowMatrixOuter1"></feMergeNode>
                <feMergeNode in="SourceGraphic"></feMergeNode>
            </feMerge>
        </filter>
    </defs>
    <g id="_zeplin" stroke="none" stroke-width="1" fill="none" fill-rule="evenodd">
        <g id="hp---dec.2019---desktop---full" transform="translate(-796.000000, -599.000000)">
            <g id="header">
                <g id="Group-10" filter="url(#filter-1)" transform="translate(0.000000, 558.000000)">
                    <g id="Group-8" transform="translate(491.000000, 33.000000)">
                        <g id="Group-4" transform="translate(304.256094, 0.000000)">
                            <g id="header_expert-mentors" transform="translate(0.513714, 8.000000)">
                                <path d="M22.089721,36 C26.6291874,36 30.309152,39.581722 30.309152,44 C30.309152,48.418278 26.6291874,52 22.089721,52 C17.5502545,52 13.8702899,48.418278 13.8702899,44 C13.8702899,39.581722 17.5502545,36 22.089721,36 Z M40.5834408,25 C45.1229073,25 48.8028719,28.581722 48.8028719,33 C48.8028719,37.418278 45.1229073,41 40.5834408,41 C36.0439744,41 32.3640098,37.418278 32.3640098,33 C32.3640098,28.581722 36.0439744,25 40.5834408,25 Z M9.76057438,14 C14.3000408,14 17.9800054,17.581722 17.9800054,22 C17.9800054,26.418278 14.3000408,30 9.76057438,30 C5.22110796,30 1.54114332,26.418278 1.54114332,22 C1.54114332,17.581722 5.22110796,14 9.76057438,14 Z M30.309152,4 C34.8486184,4 38.5285831,7.581722 38.5285831,12 C38.5285831,16.418278 34.8486184,20 30.309152,20 C25.7696856,20 22.089721,16.418278 22.089721,12 C22.089721,7.581722 25.7696856,4 30.309152,4 Z" id="o-2" fill="#FFFFFF"></path>
                                <path d="M21.5485776,45 C24.288388,45.6666667 25.6582932,46 25.6582932,46 C25.6582932,46 25.9728243,46.9184028 26.6018867,48.7552083 L26.6857221,49 L22.5760065,51 L19.4937199,51 L17.4388621,48 L18.466291,46 L21.5485776,45 Z M21.0348632,38 C22.7371631,38 24.1171498,39.3431458 24.1171498,41 C24.1171498,42.6568542 22.7371631,44 21.0348632,44 C19.3325633,44 17.9525766,42.6568542 17.9525766,41 C17.9525766,39.3431458 19.3325633,38 21.0348632,38 Z M41.0697264,35 C43.8095368,35.6666667 45.1794419,36 45.1794419,36 C45.1794419,36 45.4939731,36.9184028 46.1230355,38.7552083 L46.2068708,39 L42.0971553,41 L39.0148686,41 L36.9600109,38 L37.9874398,36 L41.0697264,35 Z M41.5834408,28 C43.2857408,28 44.6657275,29.3431458 44.6657275,31 C44.6657275,32.6568542 43.2857408,34 41.5834408,34 C39.8811409,34 38.5011542,32.6568542 38.5011542,31 C38.5011542,29.3431458 39.8811409,28 41.5834408,28 Z M10.2468599,25 C12.9866703,25.6666667 14.3565755,26 14.3565755,26 C14.3565755,26 14.6711066,26.9184028 15.300169,28.7552083 L15.3840043,29 L11.2742888,31 L8.19200217,31 L6.13714441,28 L7.16457329,26 L10.2468599,25 Z M10.7605744,18 C12.4628743,18 13.842861,19.3431458 13.842861,21 C13.842861,22.6568542 12.4628743,24 10.7605744,24 C9.05827447,24 7.67828773,22.6568542 7.67828773,21 C7.67828773,19.3431458 9.05827447,18 10.7605744,18 Z M29.7680087,15 C32.5078191,15.6666667 33.8777242,16 33.8777242,16 C33.8777242,16 34.1922554,16.9184028 34.8213178,18.7552083 L34.9051531,19 L30.7954376,21 L27.7131509,21 L25.6582932,18 L26.6857221,16 L29.7680087,15 Z M30.2817231,8 C31.984023,8 33.3640098,9.34314575 33.3640098,11 C33.3640098,12.6568542 31.984023,14 30.2817231,14 C28.5794232,14 27.1994365,12.6568542 27.1994365,11 C27.1994365,9.34314575 28.5794232,8 30.2817231,8 Z" id="o-1" fill="#96DDE7"></path>
                                <path d="M30.702035,3 C35.9548274,3 40.2291028,6.915358 40.2291028,11.7272727 C40.2291028,14.5652596 38.7423557,17.0913843 36.4449329,18.6863314 L40.712602,23.7490882 C40.9231477,23.7346265 41.135676,23.7272727 41.3499343,23.7272727 C46.2938344,23.7272727 50.3165863,27.6426307 50.3165863,32.4545455 C50.3165863,35.2343298 48.9741008,37.7149123 46.8870812,39.3143051 C46.8166913,39.5014607 46.6946512,39.6615602 46.5346338,39.7662267 C45.1257354,40.692094 43.5269087,41.1818182 41.91035,41.1818182 C41.824267,41.1818182 41.7382343,41.1804295 41.6522779,41.1776602 L41.6138872,41.1780898 L41.6138872,41.1780898 L41.3499343,41.1818182 C38.2837482,41.1818182 35.5718752,39.6758038 33.9542147,37.3839218 L31.0872014,39.9498427 C30.9807513,40.0443828 30.8566404,40.0909091 30.7331528,40.0909091 C30.6714851,40.0909091 30.6100949,40.0794487 30.551349,40.0569224 C31.009888,41.0771507 31.2624507,42.1938784 31.2624507,43.3635899 C31.2624507,48.1755302 26.9882768,52.0909091 21.7353829,52.0909091 C16.482489,52.0909091 12.2083151,48.1756232 12.2083151,43.3636829 C12.2083151,39.7806011 14.5781885,36.6946299 17.9573535,35.3521374 C17.9099019,35.3229838 17.8673961,35.2833255 17.8311224,35.2363583 L17.8311224,35.2363583 L14.775586,31.272932 C13.4612768,32.0471214 12.0015483,32.4545455 10.5270678,32.4545455 C8.91050917,32.4545455 7.31168243,31.9648213 5.90278409,31.038954 C5.64301168,30.8680315 5.48332603,30.5530331 5.48332603,30.2123068 L5.48332603,30.2123068 L5.48339866,30.0375365 C2.79290167,28.4933242 1,25.7528847 1,22.6363636 C1,17.8244489 5.27417388,13.9090909 10.5270678,13.9090909 C12.692241,13.9090909 14.6911598,14.5743277 16.29301,15.6933835 L21.2032785,12.4034182 C21.1845203,12.180253 21.1749671,11.9547648 21.1749671,11.7272727 C21.1749671,6.915358 25.449141,3 30.702035,3 Z M24.1739138,46.3636643 L19.2966549,46.3636643 C18.7872567,46.3636643 18.3728227,46.7989126 18.3728227,47.3334927 L18.3728227,47.3334927 L18.3728227,49.2797492 C20.4651875,50.4633425 23.0054798,50.4633425 25.0978446,49.2797492 L25.0977461,49.2797492 L25.0977461,47.3334927 C25.0977461,46.7989126 24.6833121,46.3636643 24.1739138,46.3636643 L24.1739138,46.3636643 Z M21.7353829,36.2230813 C17.4369516,36.2230813 13.9405369,39.4259899 13.9405369,43.3635899 C13.9405369,45.5404221 15.0091234,47.4927154 16.6910548,48.8034434 L16.6916411,47.3324859 C16.6916411,45.7460839 17.8601736,44.4545455 19.2967534,44.4545455 L19.2967534,44.4545455 L24.1740123,44.4545455 C25.6106907,44.4545455 26.7791247,45.7460839 26.7791247,47.3334927 L26.7791247,47.3334927 L26.779711,48.8034434 C28.4616424,47.4927154 29.5302289,45.5404221 29.5302289,43.3635899 C29.5302289,39.4259899 26.0338142,36.2230813 21.7353829,36.2230813 Z M21.6419803,36.8181818 C23.80554,36.8181818 25.5648905,38.5306755 25.5648905,40.6363636 C25.5648905,42.7420518 23.8054251,44.4545455 21.6419803,44.4545455 C19.4785354,44.4545455 17.71907,42.7421637 17.71907,40.6363636 C17.71907,38.5306755 19.4784205,36.8181818 21.6419803,36.8181818 Z M21.6419803,38.7272168 C20.5601429,38.7272168 19.6804677,39.5835195 19.6804677,40.6363636 C19.6804677,41.6893196 20.5602578,42.5455105 21.6419803,42.5455105 C22.7237027,42.5455105 23.6034929,41.6893196 23.6034929,40.6363636 C23.6034929,39.5834077 22.7237027,38.7272168 21.6419803,38.7272168 Z M21.5058742,14.0109977 L17.4996574,16.69543 C19.0838167,18.2545292 20.0541356,20.3436811 20.0541356,22.6363636 C20.0541356,25.7528847 18.261234,28.4933242 15.570737,30.0375365 L15.5708096,30.2133135 C15.5708096,30.2940665 15.5617868,30.3734796 15.5445416,30.4499091 L18.7278353,34.5823081 C18.8362948,34.7229398 18.8642917,34.8982436 18.8193442,35.0556882 C19.7372644,34.7832478 20.7179655,34.6363636 21.7353829,34.6363636 C25.3766486,34.6363636 28.547624,36.5177195 30.1506275,39.2749562 C30.1722014,39.100939 30.2500858,38.9366091 30.377996,38.8223028 L30.377996,38.8223028 L33.2687744,36.2344323 C32.7014421,35.0901426 32.3832822,33.8077984 32.3832822,32.4545455 C32.3832822,28.5771319 34.995273,25.2818567 38.5964774,24.1481743 L35.2507325,20.1789998 C33.8603674,21.0730482 32.2897536,21.5454545 30.702035,21.5454545 C29.0854763,21.5454545 27.4866496,21.0557304 26.0777512,20.1298631 C25.8179788,19.9589406 25.6582932,19.6439422 25.6582932,19.3032158 L25.6582932,19.3032158 L25.6583658,19.1284456 C23.6497459,17.975597 22.1414036,16.1560274 21.5058742,14.0109977 Z M44.348881,35.4545734 L39.4716221,35.4545734 C38.9622239,35.4545734 38.5477898,35.8898216 38.5477898,36.4244018 L38.5477898,36.4244018 L38.5477898,38.3706583 C40.6401546,39.5542516 43.1805455,39.5542516 45.2728117,38.3706583 L45.2727132,38.3706583 L45.2727132,36.4244018 C45.2727132,35.8898216 44.8582792,35.4545734 44.348881,35.4545734 L44.348881,35.4545734 Z M42.0579763,25.3469582 L42.2746499,25.6044203 C42.5993257,25.9893196 42.5119793,26.5365456 42.0784652,26.8253991 C41.9019335,26.9432317 41.6949454,27 41.4909456,27 C41.1928184,27 40.8985989,26.8796103 40.7054024,26.6509005 L40.7054024,26.6509005 L39.7273882,25.4899234 C36.460041,26.2104977 34.0136086,29.0593813 34.0136086,32.4544525 C34.0136086,34.7497827 35.1318248,36.7954612 36.8659372,38.1025783 L36.8666082,36.423395 C36.8666082,34.9432051 37.8839086,33.7197173 39.1870516,33.5625234 C38.4477528,32.8694423 37.9874398,31.8952753 37.9874398,30.8181818 C37.9874398,28.7124936 39.7467903,27 41.91035,27 C44.0739098,27 45.8332603,28.7124936 45.8332603,30.8181818 C45.8332603,31.8955218 45.3727177,32.8699359 44.6331258,33.5647309 C45.9363595,33.7190992 46.9540918,34.9428956 46.9540918,36.4244018 L46.9540918,36.4244018 L46.9550059,37.0568979 C48.034702,35.8131856 48.6862599,34.206552 48.6862599,32.4544525 C48.6862599,28.7493162 45.7725667,25.6946876 42.0579763,25.3469582 Z M41.91035,28.909035 C40.8285127,28.909035 39.9488374,29.7653377 39.9488374,30.8181818 C39.9488374,31.8711378 40.8286276,32.7273287 41.91035,32.7273287 C42.9920725,32.7273287 43.8718626,31.8711378 43.8718626,30.8181818 C43.8718626,29.7652259 42.9920725,28.909035 41.91035,28.909035 Z M12.9655988,26.7273007 L8.08833985,26.7273007 C7.57894164,26.7273007 7.16450762,27.1625489 7.16450762,27.6971291 L7.16450762,27.6971291 L7.16380557,29.077537 C8.18255438,29.525668 9.32336461,29.7768341 10.5270678,29.7768341 C11.7306601,29.7768341 12.871371,29.5257143 13.8900484,29.0776609 L13.889431,27.6971291 C13.889431,27.1625489 13.474997,26.7273007 12.9655988,26.7273007 L12.9655988,26.7273007 Z M10.5270678,15.4958931 C6.22863653,15.4958931 2.73222183,18.6987846 2.73222183,22.6363636 C2.73222183,24.8131843 3.80080829,26.7654671 5.4827397,28.0761882 L5.48332603,27.6961223 C5.48332603,26.1097203 6.65185855,24.8181818 8.08843836,24.8181818 L8.08843836,24.8181818 L12.9656973,24.8181818 C14.4022771,24.8181818 15.5708096,26.1097203 15.5708096,27.6971291 L15.5708096,27.6971291 L15.5705994,28.0768088 C17.25299,26.7660835 18.3219138,24.8135279 18.3219138,22.6363636 C18.3219138,18.6987846 14.8254991,15.4958931 10.5270678,15.4958931 Z M10.4336652,17.1818182 C12.59711,17.1818182 14.3565755,18.8943118 14.3565755,21 C14.3565755,23.1056882 12.597225,24.8181818 10.4336652,24.8181818 C8.27022034,24.8181818 6.51075491,23.1056882 6.51075491,21 C6.51075491,18.8943118 8.27010541,17.1818182 10.4336652,17.1818182 Z M10.4336652,19.0908532 C9.35182783,19.0908532 8.47215259,19.947044 8.47215259,21 C8.47215259,22.052956 9.35194277,22.9091468 10.4336652,22.9091468 C11.5153876,22.9091468 12.3951778,22.052956 12.3951778,21 C12.3951778,19.947044 11.5153876,19.0908532 10.4336652,19.0908532 Z M33.1405659,15.8182098 L28.263307,15.8182098 C27.7539088,15.8182098 27.3394748,16.253458 27.3394748,16.7880381 L27.3394748,16.7880381 L27.3390544,18.16857 C28.3577318,18.6166234 29.4984427,18.8677432 30.702035,18.8677432 C31.9056272,18.8677432 33.0463381,18.6166234 34.0650155,18.16857 L34.0643981,16.7880381 C34.0643981,16.253458 33.6499641,15.8182098 33.1405659,15.8182098 L33.1405659,15.8182098 Z M30.702035,4.58680222 C26.4036037,4.58680222 22.907189,7.78969373 22.907189,11.7272727 C22.907189,11.749332 22.9072987,11.7713682 22.9075177,11.7933809 C23.0197871,11.8315816 23.1212415,11.8903791 23.205592,11.9672848 C23.521048,12.2561751 23.4780126,12.6902359 23.1089167,12.9371306 L23.1089167,12.9371306 L23.029386,12.9909255 C23.354561,14.6525293 24.3092458,16.1165315 25.6585034,17.1677179 L25.6582932,16.7870314 C25.6582932,15.2006293 26.8268257,13.9090909 28.2634055,13.9090909 L28.2634055,13.9090909 L33.1406644,13.9090909 C34.5772442,13.9090909 35.7457767,15.2005175 35.7457767,16.7880381 L35.7457767,16.7880381 L35.7455665,17.1677179 C37.4279571,15.8569926 38.4968809,13.904437 38.4968809,11.7272727 C38.4968809,7.78969373 35.0004662,4.58680222 30.702035,4.58680222 Z M30.702035,6.27272727 C32.8654798,6.27272727 34.6249452,7.98533278 34.6249452,10.091021 C34.6249452,12.1967091 32.8654798,13.9090909 30.702035,13.9090909 C28.5385901,13.9090909 26.7791247,12.1965973 26.7791247,10.0909091 C26.7791247,7.98522091 28.5384752,6.27272727 30.702035,6.27272727 Z M30.702035,8.18176225 C29.6201976,8.18176225 28.7405224,9.038065 28.7405224,10.0909091 C28.7405224,11.143865 29.6203125,12.0000559 30.702035,12.0000559 C31.7837574,12.0000559 32.6634326,11.143865 32.6635476,10.0909091 C32.6635476,9.03795314 31.7838723,8.18176225 30.702035,8.18176225 Z" id="Combined-Shape" fill="#223C50" fill-rule="nonzero"></path>
                            </g>
                        </g>
                    </g>
                </g>
            </g>
        </g>
    </g>
</svg>